<?xml version="1.0" encoding="UTF-8"?> <!--Generator: Apple Native CoreSVG 232.5--> <!DOCTYPE svg PUBLIC "-//W3C//DTD SVG 1.1//EN"        "http://www.w3.org/Graphics/SVG/1.1/DTD/svg11.dtd"> <svg version="1.1" xmlns="http://www.w3.org/2000/svg" xmlns:xlink="http://www.w3.org/1999/xlink" width="15.1672" height="12.1216">  <g>   <rect height="12.1216" opacity="0" width="15.1672" x="0" y="0"/>   <path d="M14.7609 6.04843C14.7609 5.81234 14.6645 5.58344 14.4872 5.4125L9.34124 0.280779C9.14405 0.0821867 8.93921 0 8.71937 0C8.23531 0 7.88359 0.345935 7.88359 0.816713C7.88359 1.05905 7.97562 1.26827 8.13156 1.4228L9.88156 3.19561L12.7975 5.86203L13.0691 5.35469L10.3664 5.19563L0.861868 5.19563C0.348747 5.19563 0 5.54516 0 6.04843C0 6.55171 0.348747 6.90124 0.861868 6.90124L10.3664 6.90124L13.0691 6.74218L12.7975 6.24265L9.88156 8.90125L8.13156 10.6727C7.97562 10.8194 7.88359 11.0364 7.88359 11.2787C7.88359 11.7495 8.23531 12.0955 8.71937 12.0955C8.93921 12.0955 9.14405 12.0069 9.32843 11.8275L14.4872 6.68437C14.6645 6.51343 14.7609 6.28452 14.7609 6.04843Z" fill="#000000" fill-opacity="0.85"/>  </g> </svg>